<svg xmlns="http://www.w3.org/2000/svg"><style>:root svg:not(:target){display:none}</style><svg viewBox="0 0 12 21" fill="none" id="icon-facebook"><path d="M3.88 20.36v-9.13h-3.07v-3.55h3.07v-2.62c0-3.05 1.86-4.7 4.58-4.7 1.3 0 2.41.1 2.74.14v3.18h-1.88c-1.48 0-1.77.7-1.77 1.73v2.27h3.53l-.46 3.55h-3.07v9.13h-3.67Z" fill="#fff"></path></svg><svg viewBox="0 0 22 22" fill="none" id="icon-github"><path fill-rule="evenodd" clip-rule="evenodd" d="M11 .87c-5.9 0-10.64 4.75-10.64 10.65 0 4.7 3.06 8.7 7.27 10.11.53.09.71-.22.71-.53v-1.82c-2.97.67-3.6-1.42-3.6-1.42-.48-1.24-1.2-1.55-1.2-1.55-.97-.67.1-.67.1-.67 1.06.1 1.64 1.11 1.64 1.11.93 1.64 2.48 1.15 3.1.89.1-.71.36-1.15.67-1.42-2.35-.27-4.84-1.2-4.84-5.28 0-1.15.4-2.13 1.11-2.84-.09-.26-.48-1.33.1-2.84 0 0 .88-.26 2.92 1.11.84-.22 1.77-.35 2.66-.35.89 0 1.82.13 2.66.35 2.04-1.37 2.93-1.1 2.93-1.1.58 1.46.22 2.52.09 2.83.66.76 1.1 1.69 1.1 2.84 0 4.08-2.48 4.97-4.87 5.24.4.3.7.97.7 1.95v2.92c0 .27.19.63.76.54a10.62 10.62 0 0 0-3.37-20.71Z" fill="#fff"></path></svg><svg viewBox="0 0 24 24" fill="none" id="icon-instagram"><path d="M12 2.88c2.97 0 3.32 0 4.5.06.7.01 1.4.14 2.06.39a3.69 3.69 0 0 1 2.11 2.1c.25.67.38 1.37.39 2.07.05 1.18.06 1.53.06 4.5 0 2.97-.01 3.32-.06 4.5-.01.7-.14 1.4-.39 2.07a3.68 3.68 0 0 1-2.11 2.1c-.66.25-1.36.38-2.07.4-1.17.04-1.52.06-4.5.06-2.97 0-3.32-.02-4.5-.07-.7 0-1.4-.14-2.06-.38a3.68 3.68 0 0 1-2.11-2.11 6.17 6.17 0 0 1-.38-2.07 77.87 77.87 0 0 1-.07-4.5c0-2.97.01-3.32.07-4.5 0-.7.13-1.4.38-2.06a3.69 3.69 0 0 1 2.11-2.11 6.17 6.17 0 0 1 2.07-.39c1.17-.05 1.52-.06 4.5-.06Zm0-2c-3.02 0-3.4 0-4.6.06-.92.02-1.83.2-2.7.52-.74.28-1.4.71-1.96 1.28a5.48 5.48 0 0 0-1.29 1.97c-.32.87-.5 1.78-.52 2.7a80.57 80.57 0 0 0-.06 4.6c0 3.01.01 3.4.06 4.58.02.92.2 1.84.52 2.7a5.4 5.4 0 0 0 1.29 1.97c.55.57 1.22 1 1.97 1.29.86.32 1.78.5 2.7.51 1.19.06 1.56.07 4.59.07 3.02 0 3.4-.01 4.59-.07a8.08 8.08 0 0 0 2.7-.51 5.7 5.7 0 0 0 3.25-3.26c.33-.86.5-1.78.52-2.7.05-1.19.07-1.57.07-4.59 0-3.02-.02-3.4-.07-4.59a8.17 8.17 0 0 0-.52-2.7 5.45 5.45 0 0 0-1.28-1.97c-.56-.57-1.23-1-1.97-1.28a8.17 8.17 0 0 0-2.7-.52 80.57 80.57 0 0 0-4.6-.07Z" fill="#fff"></path><path d="M12 6.29a5.72 5.72 0 1 0 0 11.43 5.72 5.72 0 0 0 0-11.43Zm0 9.42a3.7 3.7 0 1 1 0-7.42 3.7 3.7 0 0 1 0 7.42Zm5.94-8.31a1.34 1.34 0 1 0 0-2.68 1.34 1.34 0 0 0 0 2.68Z" fill="#fff"></path></svg><svg viewBox="0 0 20 16" fill="none" id="icon-twitter"><path d="M19.2 2.04a8.4 8.4 0 0 1-2.18.62 3.69 3.69 0 0 0 1.65-2.07c-.73.42-1.53.73-2.41.92a3.75 3.75 0 0 0-6.5 2.56c0 .3.03.57.1.84a10.72 10.72 0 0 1-7.75-3.94 3.75 3.75 0 0 0 1.19 5.01 4.43 4.43 0 0 1-1.73-.46v.04c0 1.84 1.3 3.37 3.02 3.71a4.17 4.17 0 0 1-1.72.04c.5 1.5 1.87 2.6 3.52 2.6a7.6 7.6 0 0 1-4.67 1.6c-.3 0-.6 0-.88-.03a10.64 10.64 0 0 0 5.78 1.68c6.92 0 10.7-5.73 10.7-10.7v-.5a6.87 6.87 0 0 0 1.88-1.92Z" fill="#fff"></path></svg></svg>