<svg viewBox="0 0 22 22" fill="none" xmlns="http://www.w3.org/2000/svg"><path fill-rule="evenodd" clip-rule="evenodd" d="M11 .87c-5.9 0-10.64 4.75-10.64 10.65 0 4.7 3.06 8.7 7.27 10.11.53.09.71-.22.71-.53v-1.82c-2.97.67-3.6-1.42-3.6-1.42-.48-1.24-1.2-1.55-1.2-1.55-.97-.67.1-.67.1-.67 1.06.1 1.64 1.11 1.64 1.11.93 1.64 2.48 1.15 3.1.89.1-.71.36-1.15.67-1.42-2.35-.27-4.84-1.2-4.84-5.28 0-1.15.4-2.13 1.11-2.84-.09-.26-.48-1.33.1-2.84 0 0 .88-.26 2.92 1.11.84-.22 1.77-.35 2.66-.35.89 0 1.82.13 2.66.35 2.04-1.37 2.93-1.1 2.93-1.1.58 1.46.22 2.52.09 2.83.66.76 1.1 1.69 1.1 2.84 0 4.08-2.48 4.97-4.87 5.24.4.3.7.97.7 1.95v2.92c0 .27.19.63.76.54a10.62 10.62 0 0 0-3.37-20.71Z" fill="#fff"/></svg>