<svg viewBox="0 0 24 24" fill="none" xmlns="http://www.w3.org/2000/svg"><path d="M12 2.88c2.97 0 3.32 0 4.5.06.7.01 1.4.14 2.06.39a3.69 3.69 0 0 1 2.11 2.1c.25.67.38 1.37.39 2.07.05 1.18.06 1.53.06 4.5 0 2.97-.01 3.32-.06 4.5-.01.7-.14 1.4-.39 2.07a3.68 3.68 0 0 1-2.11 2.1c-.66.25-1.36.38-2.07.4-1.17.04-1.52.06-4.5.06-2.97 0-3.32-.02-4.5-.07-.7 0-1.4-.14-2.06-.38a3.68 3.68 0 0 1-2.11-2.11 6.17 6.17 0 0 1-.38-2.07 77.87 77.87 0 0 1-.07-4.5c0-2.97.01-3.32.07-4.5 0-.7.13-1.4.38-2.06a3.69 3.69 0 0 1 2.11-2.11 6.17 6.17 0 0 1 2.07-.39c1.17-.05 1.52-.06 4.5-.06Zm0-2c-3.02 0-3.4 0-4.6.06-.92.02-1.83.2-2.7.52-.74.28-1.4.71-1.96 1.28a5.48 5.48 0 0 0-1.29 1.97c-.32.87-.5 1.78-.52 2.7a80.57 80.57 0 0 0-.06 4.6c0 3.01.01 3.4.06 4.58.02.92.2 1.84.52 2.7a5.4 5.4 0 0 0 1.29 1.97c.55.57 1.22 1 1.97 1.29.86.32 1.78.5 2.7.51 1.19.06 1.56.07 4.59.07 3.02 0 3.4-.01 4.59-.07a8.08 8.08 0 0 0 2.7-.51 5.7 5.7 0 0 0 3.25-3.26c.33-.86.5-1.78.52-2.7.05-1.19.07-1.57.07-4.59 0-3.02-.02-3.4-.07-4.59a8.17 8.17 0 0 0-.52-2.7 5.45 5.45 0 0 0-1.28-1.97c-.56-.57-1.23-1-1.97-1.28a8.17 8.17 0 0 0-2.7-.52 80.57 80.57 0 0 0-4.6-.07Z" fill="#fff"/><path d="M12 6.29a5.72 5.72 0 1 0 0 11.43 5.72 5.72 0 0 0 0-11.43Zm0 9.42a3.7 3.7 0 1 1 0-7.42 3.7 3.7 0 0 1 0 7.42Zm5.94-8.31a1.34 1.34 0 1 0 0-2.68 1.34 1.34 0 0 0 0 2.68Z" fill="#fff"/></svg>