<svg viewBox="0 0 20 16" fill="none" xmlns="http://www.w3.org/2000/svg"><path d="M19.2 2.04a8.4 8.4 0 0 1-2.18.62 3.69 3.69 0 0 0 1.65-2.07c-.73.42-1.53.73-2.41.92a3.75 3.75 0 0 0-6.5 2.56c0 .3.03.57.1.84a10.72 10.72 0 0 1-7.75-3.94 3.75 3.75 0 0 0 1.19 5.01 4.43 4.43 0 0 1-1.73-.46v.04c0 1.84 1.3 3.37 3.02 3.71a4.17 4.17 0 0 1-1.72.04c.5 1.5 1.87 2.6 3.52 2.6a7.6 7.6 0 0 1-4.67 1.6c-.3 0-.6 0-.88-.03a10.64 10.64 0 0 0 5.78 1.68c6.92 0 10.7-5.73 10.7-10.7v-.5a6.87 6.87 0 0 0 1.88-1.92Z" fill="#fff"/></svg>