<svg viewBox="0 0 101 30" fill="none" xmlns="http://www.w3.org/2000/svg"><path d="M12.54 1.54h16.02l-11.78 17.67h-16.02l11.78-17.67Z" fill="#19B5F1"/><path d="m13.24 20.85-4.56 6.84h16.78l11.78-17.67h-12.39l-7.21 10.83h-4.4Z" fill="#CA6AEB"/><path d="M42 7h2.62l4.05 12.85h.04l4.05-12.85h2.62l-5.42 16h-2.54l-5.42-16Z" fill="url(#a)"/><path d="M67 17.83v5.17h-2.53v-4.53l-1.58-1.8h-4.98v6.33h-2.54v-16h9.32l2.23 2.35v4.92l-1.6 1.67 1.68 1.9Zm-9.1-3.36h5.65l.87-.91v-3.4l-.87-.92h-5.64v5.23Z" fill="url(#b)"/><path d="M68.1 7h2.32l7.21 11.63h.04v-11.63h2.43v16h-2.32l-7.21-11.61h-.05v11.61h-2.42v-16Z" fill="url(#c)"/><path d="M80.88 20.97v-2.7l1.94-2.01h5.62v-1.7l-.8-.84h-3.44l-.8.85v.73h-2.44v-1.33l2.23-2.35h5.45l2.23 2.35v9.03h-2.25v-1.76l-1.75 1.76h-4.05l-1.94-2.03Zm5.75 0 1.81-1.83v-.96h-4.44l-.7.7v1.4l.66.69h2.67Z" fill="url(#d)"/><path d="M91.2 20.87v-1.39h2.43v.73l.61.66h3.72l.61-.66v-1.23l-.63-.67h-4.7l-1.95-2.05v-2.56l2-2.08h5.48l2.01 2.12v1.4h-2.43v-.73l-.6-.67h-3.42l-.61.67v1.14l.63.66h4.68l1.97 2.08v2.63l-1.99 2.08h-5.8l-2-2.13Z" fill="url(#e)"/><defs><linearGradient id="a" x1="42" y1="13.5" x2="104" y2="20.5" gradientUnits="userSpaceOnUse"><stop stop-color="#fff"/><stop offset="1" stop-color="#fff" stop-opacity="0"/></linearGradient><linearGradient id="b" x1="42" y1="13.5" x2="104" y2="20.5" gradientUnits="userSpaceOnUse"><stop stop-color="#fff"/><stop offset="1" stop-color="#fff" stop-opacity="0"/></linearGradient><linearGradient id="c" x1="42" y1="13.5" x2="104" y2="20.5" gradientUnits="userSpaceOnUse"><stop stop-color="#fff"/><stop offset="1" stop-color="#fff" stop-opacity="0"/></linearGradient><linearGradient id="d" x1="42" y1="13.5" x2="104" y2="20.5" gradientUnits="userSpaceOnUse"><stop stop-color="#fff"/><stop offset="1" stop-color="#fff" stop-opacity="0"/></linearGradient><linearGradient id="e" x1="42" y1="13.5" x2="104" y2="20.5" gradientUnits="userSpaceOnUse"><stop stop-color="#fff"/><stop offset="1" stop-color="#fff" stop-opacity="0"/></linearGradient></defs></svg>